<?xml version="1.0" encoding="UTF-8"?>
<svg width="18px" height="18px" viewBox="0 0 18 18" version="1.1" xmlns="http://www.w3.org/2000/svg" xmlns:xlink="http://www.w3.org/1999/xlink">
    <!-- Generator: Sketch 52.6 (67491) - http://www.bohemiancoding.com/sketch -->
    <title>Group 4</title>
    <desc>Created with Sketch.</desc>
    <g id="Paymo---FINAL-v0.2" stroke="none" stroke-width="1" fill="none" fill-rule="evenodd" opacity="0.200000003">
        <g id="8.3-New-Transfer---Confirmation" transform="translate(-288.000000, -547.000000)" fill="#000000">
            <g id="Group-4" transform="translate(288.000000, 547.000000)">
                <g id="Fill-2">
                    <path d="M9.003,0 C4.026,0 0,4.027 0,8.997 L0,9.003 C0.006,13.974 4.026,18 9.003,18 C13.973,18 18,13.967 18,8.997 C18,4.027 13.973,0 9.003,0 M9.003,1 C13.413,1 17,4.587 17,8.997 C17,13.41 13.413,17 9.003,17 C4.596,17 1.006,13.412 1,8.997 C1,4.587 4.59,1 9.003,1" id="Fill-1"></path>
                </g>
                <g id="Fill-5" transform="translate(8.000000, 4.000000)">
                    <path d="M1.268,7.82739746 C1.412,7.97239746 1.485,8.14839746 1.485,8.35839746 C1.485,8.56739746 1.412,8.74439746 1.268,8.88939746 C1.123,9.03339746 0.946,9.10539746 0.737,9.10539746 C0.535,9.10539746 0.361,9.03339746 0.217,8.88939746 C0.072,8.74439746 2.90989455e-13,8.56739746 2.90989455e-13,8.35839746 C2.90989455e-13,8.14839746 0.072,7.97239746 0.217,7.82739746 C0.361,7.68239746 0.535,7.61039746 0.737,7.61039746 C0.946,7.61039746 1.123,7.68239746 1.268,7.82739746 M1.3,0.00537109383 L1.3,6.72239746 L0.13,6.72239746 L0.13,0.00537109383 C0.91,-0.00179036452 1.3,-0.00179036452 1.3,0.00537109383 Z" id="Fill-4" transform="translate(0.742500, 4.552699) rotate(-180.000000) translate(-0.742500, -4.552699) "></path>
                </g>
            </g>
        </g>
    </g>
</svg>